<svg width="295" height="1146" viewBox="0 0 295 1146" fill="none" xmlns="http://www.w3.org/2000/svg">
<path fill-rule="evenodd" clip-rule="evenodd" d="M98.2699 0L155.594 47.75C212.918 95.5 302.666 191 294.476 286.5C286.287 382 180.161 477.5 147.405 573C114.648 668.5 180.161 764 196.54 859.5C212.918 955 180.161 1050.5 163.783 1098.25L147.405 1146H4.62058e-06L4.62058e-06 1098.25C4.62058e-06 1050.5 4.62058e-06 955 4.62058e-06 859.5C4.62058e-06 764 4.62058e-06 668.5 4.62058e-06 573C4.62058e-06 477.5 4.62058e-06 382 4.62058e-06 286.5C4.62058e-06 191 4.62058e-06 95.5 4.62058e-06 47.75V0L98.2699 0Z" fill="#3D47AF"/>
</svg>
